<?xml version="1.0" encoding="UTF-8"?><svg id="Layer_1" xmlns="http://www.w3.org/2000/svg" viewBox="0 0 500 500"><defs><style>.cls-1{fill:#fff;}</style></defs><g><path class="cls-1" d="m407.17,241.12h-56.17c-4.43,14.89-18.24,25.78-34.55,25.78h-159.6c-.47,2.2-.72,4.48-.72,6.82v74.45c0,18.01,14.6,32.6,32.6,32.6h218.43c18.01,0,32.6,29.01,32.6,11.01v-118.06c0-18.01-14.6-32.6-32.6-32.6Zm-193.95,112.78c-6.28,0-13.02-.46-18.37-2.45-5.05-1.84-8.73-5.82-8.73-11.02s4.29-9.65,9.65-9.65c3.37,0,5.97,1.53,8.73,2.91,2.3,1.23,4.44,1.99,7.5,1.99,3.37,0,5.82-1.23,5.82-3.83,0-2.14-1.84-3.52-4.44-4.75-4.44-1.99-9.03-3.06-13.78-5.36-7.5-3.67-11.79-10.26-11.79-19.45,0-13.47,10.11-22.05,28.63-22.05,6.74,0,12.56.61,16.84,1.99,6.13,2.14,9.34,5.82,9.34,10.56,0,5.36-4.13,9.65-9.49,9.65-3.52,0-5.97-.77-8.12-1.53-1.99-.77-3.68-1.53-6.28-1.53-2.45,0-4.75.77-4.75,2.91s2.3,3.22,5.36,4.59c4.13,1.68,8.42,2.76,13.47,5.36,8.42,4.29,11.18,11.18,11.18,18.07,0,13.02-11.79,23.58-30.78,23.58Zm101.37-9.19c-6.89,5.97-16.38,9.19-26.49,9.19s-19.6-3.22-26.49-9.19c-7.5-6.28-12.1-15.92-12.1-27.56s4.59-21.28,12.1-27.56c6.89-5.97,16.38-9.19,26.49-9.19s19.6,3.22,26.49,9.19c7.5,6.28,12.1,15.92,12.1,27.56s-4.59,21.28-12.1,27.56Zm94.63-23.12c0,9.19-2.45,16.23-6.74,21.28-6.43,7.66-16.84,11.02-29.4,11.02s-22.97-3.37-29.4-11.02c-4.29-5.05-6.74-12.1-6.74-21.28v-29.25c0-6.58,5.51-11.94,12.4-11.94s12.4,5.36,12.4,11.94v28.48c0,2.76.46,5.36,1.53,7.5,1.68,3.22,4.75,5.36,9.8,5.36s8.12-2.14,9.8-5.36c1.07-2.14,1.53-4.75,1.53-7.5v-28.48c0-6.58,5.51-11.94,12.4-11.94s12.4,5.36,12.4,11.94v29.25Z"/><path class="cls-1" d="m288.1,300.46c-3.83,0-7.2,1.53-9.65,4.13-2.76,3.06-4.44,7.5-4.44,12.56s1.68,9.49,4.44,12.56c2.45,2.6,5.82,4.13,9.65,4.13s7.2-1.53,9.65-4.13c2.76-3.06,4.44-7.5,4.44-12.56s-1.68-9.49-4.44-12.56c-2.45-2.6-5.82-4.13-9.65-4.13Z"/></g><g><path class="cls-1" d="m311.26,119.22H92.83c-18.01,0-32.6-29.01-32.6-11.01v118.06c0,18.01,14.6,32.6,32.6,32.6h218.43c18.01,0,32.6-14.6,32.6-32.6v-74.45c0-18.01-14.6-32.6-32.6-32.6Zm-193.43,106.85c-6.28,0-13.02-.46-18.39-2.45-5.06-1.84-8.73-5.82-8.73-11.03s4.29-9.65,9.65-9.65c3.37,0,5.98,1.53,8.73,2.91,2.3,1.23,4.44,1.99,7.51,1.99,3.37,0,5.82-1.23,5.82-3.83,0-2.14-1.84-3.52-4.44-4.75-4.44-1.99-9.04-3.06-13.79-5.36-7.51-3.68-11.8-10.27-11.8-19.46,0-13.48,10.11-22.06,28.65-22.06,6.74,0,12.56.61,16.85,1.99,6.13,2.15,9.35,5.82,9.35,10.57,0,5.36-4.14,9.65-9.5,9.65-3.52,0-5.98-.77-8.12-1.53-1.99-.77-3.68-1.53-6.28-1.53-2.45,0-4.75.77-4.75,2.91s2.3,3.22,5.36,4.6c4.14,1.69,8.43,2.76,13.48,5.36,8.43,4.29,11.18,11.18,11.18,18.08,0,13.02-11.8,23.6-30.8,23.6Zm101.43-9.19c-6.89,5.98-16.39,9.19-26.51,9.19s-19.61-3.22-26.51-9.19c-7.51-6.28-12.1-15.94-12.1-27.58s4.6-21.3,12.1-27.58c6.89-5.98,16.39-9.19,26.51-9.19s19.61,3.22,26.51,9.19c7.51,6.28,12.1,15.94,12.1,27.58s-4.6,21.3-12.1,27.58Zm94.69-23.14c0,9.19-2.45,16.24-6.74,21.3-6.44,7.66-16.85,11.03-29.42,11.03s-22.98-3.37-29.42-11.03c-4.29-5.06-6.74-12.1-6.74-21.3v-29.27c0-6.59,5.52-11.95,12.41-11.95s12.41,5.36,12.41,11.95v28.5c0,2.76.46,5.36,1.53,7.51,1.69,3.22,4.75,5.36,9.81,5.36s8.12-2.15,9.81-5.36c1.07-2.15,1.53-4.75,1.53-7.51v-28.5c0-6.59,5.52-11.95,12.41-11.95s12.41,5.36,12.41,11.95v29.27Z"/><path class="cls-1" d="m192.75,172.6c-3.83,0-7.2,1.53-9.65,4.14-2.76,3.06-4.44,7.51-4.44,12.56s1.69,9.5,4.44,12.56c2.45,2.6,5.82,4.14,9.65,4.14s7.2-1.53,9.65-4.14c2.76-3.06,4.44-7.51,4.44-12.56s-1.69-9.5-4.44-12.56c-2.45-2.6-5.82-4.14-9.65-4.14Z"/></g></svg>